<svg width="28" height="26" viewBox="0 0 28 26" fill="none" xmlns="http://www.w3.org/2000/svg">
<path d="M13.2066 3.25H5.93828C3.61662 3.25 2.44995 4.34417 2.44995 6.52167V23.8333H8.74995V19.7708C8.74995 19.3267 9.14662 18.9583 9.62495 18.9583C10.1033 18.9583 10.5 19.3158 10.5 19.7708V23.8333H16.6833V6.52167C16.6833 4.34417 15.5283 3.25 13.2066 3.25ZM12.5416 13.8125H6.76662C6.28828 13.8125 5.89162 13.4442 5.89162 13C5.89162 12.5558 6.28828 12.1875 6.76662 12.1875H12.5416C13.0199 12.1875 13.4166 12.5558 13.4166 13C13.4166 13.4442 13.0199 13.8125 12.5416 13.8125ZM12.5416 9.75H6.76662C6.28828 9.75 5.89162 9.38167 5.89162 8.9375C5.89162 8.49333 6.28828 8.125 6.76662 8.125H12.5416C13.0199 8.125 13.4166 8.49333 13.4166 8.9375C13.4166 9.38167 13.0199 9.75 12.5416 9.75Z" fill="white"/>
<path d="M26.8333 23.0209H24.185V19.7709C25.2933 19.435 26.0983 18.4709 26.0983 17.3334V15.1667C26.0983 13.7475 24.85 12.5884 23.3216 12.5884C21.7933 12.5884 20.545 13.7475 20.545 15.1667V17.3334C20.545 18.46 21.3383 19.4134 22.4233 19.76V23.0209H1.16663C0.688293 23.0209 0.291626 23.3892 0.291626 23.8334C0.291626 24.2775 0.688293 24.6459 1.16663 24.6459H23.2516C23.275 24.6459 23.2866 24.6567 23.31 24.6567C23.3333 24.6567 23.345 24.6459 23.3683 24.6459H26.8333C27.3116 24.6459 27.7083 24.2775 27.7083 23.8334C27.7083 23.3892 27.3116 23.0209 26.8333 23.0209Z" fill="white"/>
</svg>
