<svg width="36" height="36" viewBox="0 0 36 36" fill="none" xmlns="http://www.w3.org/2000/svg">
<path d="M6 20.25V28.35C6 30.9 8.085 33 10.65 33H25.35C27.9 33 30 30.915 30 28.35V20.25C30 19.83 29.67 19.5 29.25 19.5H6.75C6.33 19.5 6 19.83 6 20.25ZM13.32 27.57C12.975 27.93 12.495 28.125 12 28.125C11.88 28.125 11.76 28.11 11.64 28.095C11.52 28.065 11.4 28.035 11.28 27.975C11.175 27.93 11.055 27.87 10.965 27.81C10.86 27.735 10.755 27.66 10.68 27.57C10.32 27.225 10.125 26.745 10.125 26.25C10.125 25.755 10.32 25.275 10.68 24.93C10.755 24.84 10.86 24.765 10.965 24.69C11.055 24.63 11.175 24.57 11.28 24.525C11.4 24.465 11.52 24.435 11.64 24.405C12.24 24.285 12.885 24.495 13.32 24.93C13.68 25.275 13.875 25.755 13.875 26.25C13.875 26.745 13.68 27.225 13.32 27.57ZM25.32 27.57C25.245 27.66 25.14 27.735 25.035 27.81C24.945 27.87 24.825 27.93 24.72 27.975C24.6 28.035 24.48 28.065 24.375 28.095C24.24 28.11 24.12 28.125 24 28.125C23.88 28.125 23.76 28.11 23.64 28.095C23.52 28.065 23.4 28.035 23.28 27.975C23.175 27.93 23.055 27.87 22.965 27.81C22.86 27.735 22.755 27.66 22.68 27.57C22.32 27.225 22.125 26.745 22.125 26.25C22.125 25.755 22.32 25.275 22.68 24.93C22.755 24.84 22.86 24.765 22.965 24.69C23.055 24.63 23.175 24.57 23.28 24.525C23.4 24.465 23.52 24.435 23.64 24.405C23.88 24.36 24.12 24.36 24.375 24.405C24.48 24.435 24.6 24.465 24.72 24.525C24.825 24.57 24.945 24.63 25.035 24.69C25.14 24.765 25.245 24.84 25.32 24.93C25.68 25.275 25.875 25.755 25.875 26.25C25.875 26.745 25.68 27.225 25.32 27.57Z" fill="#18B025"/>
<path d="M25.35 3H10.65C8.085 3 6 5.085 6 7.65V11.25C6 11.67 6.33 12 6.75 12H29.25C29.67 12 30 11.67 30 11.25V7.65C30 5.085 27.915 3 25.35 3ZM21.75 8.625H14.25C13.635 8.625 13.125 8.115 13.125 7.5C13.125 6.885 13.635 6.375 14.25 6.375H21.75C22.365 6.375 22.875 6.885 22.875 7.5C22.875 8.115 22.365 8.625 21.75 8.625Z" fill="#18B025"/>
<path d="M29.25 18H6.75C6.33 18 6 17.67 6 17.25V14.25C6 13.83 6.33 13.5 6.75 13.5H29.25C29.67 13.5 30 13.83 30 14.25V17.25C30 17.67 29.67 18 29.25 18Z" fill="#18B025"/>
</svg>
