<svg width="28" height="26" viewBox="0 0 28 26" fill="none" xmlns="http://www.w3.org/2000/svg">
<path d="M19.5416 3.8565V2.1665C19.5416 1.72234 19.145 1.354 18.6666 1.354C18.1883 1.354 17.7916 1.72234 17.7916 2.1665V3.7915H10.2083V2.1665C10.2083 1.72234 9.81165 1.354 9.33332 1.354C8.85498 1.354 8.45832 1.72234 8.45832 2.1665V3.8565C5.30832 4.12734 3.77998 5.8715 3.54665 8.46067C3.52332 8.77484 3.80332 9.03484 4.12998 9.03484H23.87C24.2083 9.03484 24.4883 8.764 24.4533 8.46067C24.22 5.8715 22.6916 4.12734 19.5416 3.8565Z" fill="white"/>
<path d="M23.3333 10.6602H4.66667C4.025 10.6602 3.5 11.1477 3.5 11.7435V18.4168C3.5 21.6668 5.25 23.8335 9.33333 23.8335H18.6667C22.75 23.8335 24.5 21.6668 24.5 18.4168V11.7435C24.5 11.1477 23.975 10.6602 23.3333 10.6602ZM10.745 19.7277C10.6867 19.771 10.6283 19.8252 10.57 19.8577C10.5 19.901 10.43 19.9335 10.36 19.9552C10.29 19.9877 10.22 20.0093 10.15 20.0202C10.0683 20.031 9.99833 20.0418 9.91667 20.0418C9.765 20.0418 9.61333 20.0093 9.47333 19.9552C9.32167 19.901 9.205 19.8252 9.08833 19.7277C8.87833 19.5218 8.75 19.2402 8.75 18.9585C8.75 18.6768 8.87833 18.3952 9.08833 18.1893C9.205 18.0918 9.32167 18.016 9.47333 17.9618C9.68333 17.8752 9.91667 17.8535 10.15 17.8968C10.22 17.9077 10.29 17.9293 10.36 17.9618C10.43 17.9835 10.5 18.016 10.57 18.0593C10.6283 18.1027 10.6867 18.146 10.745 18.1893C10.955 18.3952 11.0833 18.6768 11.0833 18.9585C11.0833 19.2402 10.955 19.5218 10.745 19.7277ZM10.745 15.936C10.5233 16.131 10.22 16.2502 9.91667 16.2502C9.61333 16.2502 9.31 16.131 9.08833 15.936C8.87833 15.7302 8.75 15.4485 8.75 15.1668C8.75 14.8852 8.87833 14.6035 9.08833 14.3977C9.415 14.0943 9.92833 13.9968 10.36 14.1702C10.5117 14.2243 10.64 14.3002 10.745 14.3977C10.955 14.6035 11.0833 14.8852 11.0833 15.1668C11.0833 15.4485 10.955 15.7302 10.745 15.936ZM14.8283 19.7277C14.6067 19.9227 14.3033 20.0418 14 20.0418C13.6967 20.0418 13.3933 19.9227 13.1717 19.7277C12.9617 19.5218 12.8333 19.2402 12.8333 18.9585C12.8333 18.6768 12.9617 18.3952 13.1717 18.1893C13.6033 17.7885 14.3967 17.7885 14.8283 18.1893C15.0383 18.3952 15.1667 18.6768 15.1667 18.9585C15.1667 19.2402 15.0383 19.5218 14.8283 19.7277ZM14.8283 15.936C14.77 15.9793 14.7117 16.0227 14.6533 16.066C14.5833 16.1093 14.5133 16.1418 14.4433 16.1635C14.3733 16.196 14.3033 16.2177 14.2333 16.2285C14.1517 16.2393 14.0817 16.2502 14 16.2502C13.6967 16.2502 13.3933 16.131 13.1717 15.936C12.9617 15.7302 12.8333 15.4485 12.8333 15.1668C12.8333 14.8852 12.9617 14.6035 13.1717 14.3977C13.2767 14.3002 13.405 14.2243 13.5567 14.1702C13.9883 13.9968 14.5017 14.0943 14.8283 14.3977C15.0383 14.6035 15.1667 14.8852 15.1667 15.1668C15.1667 15.4485 15.0383 15.7302 14.8283 15.936ZM18.9117 19.7277C18.69 19.9227 18.3867 20.0418 18.0833 20.0418C17.78 20.0418 17.4767 19.9227 17.255 19.7277C17.045 19.5218 16.9167 19.2402 16.9167 18.9585C16.9167 18.6768 17.045 18.3952 17.255 18.1893C17.6867 17.7885 18.48 17.7885 18.9117 18.1893C19.1217 18.3952 19.25 18.6768 19.25 18.9585C19.25 19.2402 19.1217 19.5218 18.9117 19.7277ZM18.9117 15.936C18.8533 15.9793 18.795 16.0227 18.7367 16.066C18.6667 16.1093 18.5967 16.1418 18.5267 16.1635C18.4567 16.196 18.3867 16.2177 18.3167 16.2285C18.235 16.2393 18.1533 16.2502 18.0833 16.2502C17.78 16.2502 17.4767 16.131 17.255 15.936C17.045 15.7302 16.9167 15.4485 16.9167 15.1668C16.9167 14.8852 17.045 14.6035 17.255 14.3977C17.3717 14.3002 17.4883 14.2243 17.64 14.1702C17.85 14.0835 18.0833 14.0618 18.3167 14.1052C18.3867 14.116 18.4567 14.1377 18.5267 14.1702C18.5967 14.1918 18.6667 14.2243 18.7367 14.2677C18.795 14.311 18.8533 14.3543 18.9117 14.3977C19.1217 14.6035 19.25 14.8852 19.25 15.1668C19.25 15.4485 19.1217 15.7302 18.9117 15.936Z" fill="white"/>
</svg>
