<svg width="28" height="26" viewBox="0 0 28 26" fill="none" xmlns="http://www.w3.org/2000/svg">
<path d="M25.375 8.66675C25.375 9.11092 24.9783 9.47925 24.5 9.47925H3.5C3.02167 9.47925 2.625 9.11092 2.625 8.66675C2.625 8.22258 3.02167 7.85425 3.5 7.85425H4.69L5.13333 5.89342C5.55333 3.99758 6.42833 2.25342 9.905 2.25342H18.095C21.5717 2.25342 22.4467 3.99758 22.8667 5.89342L23.31 7.85425H24.5C24.9783 7.85425 25.375 8.22258 25.375 8.66675Z" fill="white"/>
<path d="M25.8767 14.7984C25.7017 13.0109 25.1883 11.1042 21.4433 11.1042H6.55668C2.81169 11.1042 2.31002 13.0109 2.12335 14.7984L1.47002 21.3959C1.38835 22.2192 1.68002 23.0426 2.28669 23.6601C2.90502 24.2884 3.78002 24.6459 4.71335 24.6459H6.90668C8.79668 24.6459 9.15835 23.6384 9.39168 22.9776L9.62502 22.3276C9.89335 21.5801 9.96335 21.3959 11.0134 21.3959H16.9867C18.0367 21.3959 18.0717 21.5042 18.375 22.3276L18.6083 22.9776C18.8417 23.6384 19.2034 24.6459 21.0933 24.6459H23.2867C24.2083 24.6459 25.095 24.2884 25.7134 23.6601C26.32 23.0426 26.6117 22.2192 26.53 21.3959L25.8767 14.7984ZM10.5 17.0626H7.00002C6.52168 17.0626 6.12502 16.6942 6.12502 16.2501C6.12502 15.8059 6.52168 15.4376 7.00002 15.4376H10.5C10.9784 15.4376 11.375 15.8059 11.375 16.2501C11.375 16.6942 10.9784 17.0626 10.5 17.0626ZM21 17.0626H17.5C17.0217 17.0626 16.625 16.6942 16.625 16.2501C16.625 15.8059 17.0217 15.4376 17.5 15.4376H21C21.4783 15.4376 21.875 15.8059 21.875 16.2501C21.875 16.6942 21.4783 17.0626 21 17.0626Z" fill="white"/>
</svg>
