<svg width="36" height="36" viewBox="0 0 36 36" fill="none" xmlns="http://www.w3.org/2000/svg">
<path d="M9 7.68018C8.385 7.68018 7.875 7.17018 7.875 6.55518V3.93018C7.875 3.31518 8.385 2.80518 9 2.80518C9.615 2.80518 10.125 3.31518 10.125 3.93018V6.55518C10.125 7.18518 9.615 7.68018 9 7.68018Z" fill="#18B025"/>
<path d="M15 7.68018C14.385 7.68018 13.875 7.17018 13.875 6.55518V3.93018C13.875 3.31518 14.385 2.80518 15 2.80518C15.615 2.80518 16.125 3.31518 16.125 3.93018V6.55518C16.125 7.18518 15.615 7.68018 15 7.68018Z" fill="#18B025"/>
<path d="M21 7.68018C20.385 7.68018 19.875 7.17018 19.875 6.55518V3.93018C19.875 3.31518 20.385 2.80518 21 2.80518C21.615 2.80518 22.125 3.31518 22.125 3.93018V6.55518C22.125 7.18518 21.615 7.68018 21 7.68018Z" fill="#18B025"/>
<path d="M33.375 19.8751C33.375 15.9451 30.33 12.7651 26.49 12.4351C25.38 10.6201 23.4 9.39014 21.12 9.39014H10.065C6.585 9.39014 3.75 12.2251 3.75 15.7051V16.5001H27.435V15.7051C27.435 15.4201 27.39 15.1351 27.345 14.8651C29.52 15.5101 31.125 17.4901 31.125 19.8751C31.125 22.2301 29.565 24.1951 27.435 24.8551V18.0001H3.75V26.6851C3.75 30.1651 6.585 33.0001 10.065 33.0001H21.12C24.42 33.0001 27.105 30.4501 27.375 27.2101C30.795 26.5201 33.375 23.4901 33.375 19.8751Z" fill="#18B025"/>
</svg>
