<svg width="24" height="24" viewBox="0 0 24 24" fill="none" xmlns="http://www.w3.org/2000/svg">
<path d="M22.4046 6.72771C21.4192 5.63597 20.0451 4.89575 18.5031 4.7355C15.3205 4.1474 13.1675 2.82724 12.1368 2.04836C12.122 2.04836 12.1139 2.03361 12.0981 2.01784C11.8239 1.80468 11.6255 1.65155 11.5258 1.55234C11.4958 1.50605 11.4571 1.4913 11.4271 1.46077C10.2362 0.56794 8.75573 0.0561523 7.16034 0.0561523C3.19779 0.0561523 -0.0153809 3.26984 -0.0153809 7.23136C-0.0153809 9.02465 0.633257 10.6592 1.7245 11.9107C1.7245 11.9107 1.77079 11.9484 1.8471 12.0481C1.87864 12.0791 1.90815 12.1178 1.93867 12.163C2.30445 12.6514 3.04568 13.9492 3.28275 16.6058C3.29038 16.7503 3.30514 16.9034 3.31277 17.0561C3.69432 20.835 6.87036 23.7734 10.7484 23.7734C13.1227 23.7734 15.2375 22.6664 16.603 20.9489C16.8014 20.6437 16.9993 20.3618 17.1906 20.0937C19.023 17.4529 20.1758 16.613 20.5721 16.3764C20.679 16.323 20.7324 16.3001 20.7324 16.3001C22.6717 15.2699 24 13.2232 24 10.8576C24 9.26223 23.3966 7.81946 22.4046 6.72771ZM9.95584 15.1046C7.26208 15.1046 5.07757 12.9206 5.07757 10.2263C5.07757 7.53355 7.26157 5.34802 9.95584 5.34802C12.6501 5.34802 14.8341 7.53355 14.8341 10.2263C14.8341 12.9206 12.6501 15.1046 9.95584 15.1046Z" fill="#EF6B01"/>
<path d="M7.50041 8.00078C7.50041 8.00078 8.20581 7.06056 9.41507 7.00066C10.2023 6.98898 10.6937 7.22708 10.8458 7.44132C10.998 7.65556 11.2549 8.41708 10.3544 8.67904C10.1674 8.7029 9.8401 8.57192 9.8401 8.57192C9.8401 8.57192 9.17362 8.38154 8.7406 8.8811C8.565 9.10701 8.49515 9.28572 8.46023 9.40502C8.42531 9.52433 8.26617 10.0122 7.73737 10C7.20857 9.98834 6.89279 9.46442 7.03347 8.97603C7.17315 8.48866 7.50041 8.00078 7.50041 8.00078Z" fill="#EF6B01"/>
</svg>
