<svg width="28" height="26" viewBox="0 0 28 26" fill="none" xmlns="http://www.w3.org/2000/svg">
<path d="M18.8884 2.1665H9.11171C4.86504 2.1665 2.33337 4.51734 2.33337 8.46067V17.5282C2.33337 21.4823 4.86504 23.8332 9.11171 23.8332H18.8767C23.1234 23.8332 25.655 21.4823 25.655 17.539V8.46067C25.6667 4.51734 23.135 2.1665 18.8884 2.1665ZM9.91671 6.9115C11.1184 6.9115 12.11 7.8215 12.11 8.94817C12.11 10.0748 11.13 10.9848 9.91671 10.9848C8.70337 10.9848 7.72337 10.0532 7.72337 8.93734C7.72337 7.8215 8.71504 6.9115 9.91671 6.9115ZM14 20.6698C10.8617 20.6698 8.30671 18.2973 8.30671 15.3832C8.30671 14.6248 8.97171 13.9965 9.78837 13.9965H18.1884C19.005 13.9965 19.67 14.614 19.67 15.3832C19.6934 18.2973 17.1384 20.6698 14 20.6698ZM18.0834 10.9632C16.8817 10.9632 15.89 10.0532 15.89 8.9265C15.89 7.79984 16.87 6.88984 18.0834 6.88984C19.2967 6.88984 20.2767 7.79984 20.2767 8.9265C20.2767 10.0532 19.285 10.9632 18.0834 10.9632Z" fill="white"/>
</svg>
