<svg style="display: none;" aria-hidden="true" xmlns="http://www.w3.org/2000/svg" xmlns:xlink="http://www.w3.org/1999/xlink"><symbol viewBox="0 0 60 60" fill="none" id="svg-1" xmlns="http://www.w3.org/2000/svg">
<circle cx="30" cy="30" r="28" stroke-width="4"/>
<path d="M36.3333 18.7465V16.6665C36.3333 16.1198 35.88 15.6665 35.3333 15.6665C34.7866 15.6665 34.3333 16.1198 34.3333 16.6665V18.6665H25.6666V16.6665C25.6666 16.1198 25.2133 15.6665 24.6666 15.6665C24.12 15.6665 23.6666 16.1198 23.6666 16.6665V18.7465C20.0666 19.0798 18.32 21.2265 18.0533 24.4132C18.0266 24.7998 18.3466 25.1198 18.72 25.1198H41.28C41.6666 25.1198 41.9866 24.7865 41.9466 24.4132C41.68 21.2265 39.9333 19.0798 36.3333 18.7465Z"/>
<path d="M40.6667 27.1201H19.3333C18.6 27.1201 18 27.7201 18 28.4535V36.6668C18 40.6668 20 43.3335 24.6667 43.3335H35.3333C40 43.3335 42 40.6668 42 36.6668V28.4535C42 27.7201 41.4 27.1201 40.6667 27.1201ZM33.7867 33.9868L33.12 34.6668H33.1067L29.0667 38.7068C28.8933 38.8801 28.5333 39.0668 28.28 39.0935L26.48 39.3601C25.8267 39.4535 25.3733 38.9868 25.4667 38.3468L25.72 36.5335C25.76 36.2801 25.9333 35.9334 26.1067 35.7468L30.16 31.7068L30.8267 31.0268C31.2667 30.5868 31.76 30.2668 32.2933 30.2668C32.7467 30.2668 33.24 30.4801 33.7867 31.0268C34.9867 32.2268 34.6 33.1735 33.7867 33.9868Z"/>
</symbol><symbol viewBox="0 0 60 60" fill="none" id="svg-2" xmlns="http://www.w3.org/2000/svg">
<circle cx="30" cy="30" r="28" stroke-width="4"/>
<path d="M43.3334 28.3335C43.88 28.3335 44.3334 27.8802 44.3334 27.3335V26.0002C44.3334 20.1202 42.5467 18.3335 36.6667 18.3335H28.3334V21.3335C28.3334 21.8802 27.88 22.3335 27.3334 22.3335C26.7867 22.3335 26.3334 21.8802 26.3334 21.3335V18.3335H23.3334C17.4534 18.3335 15.6667 20.1202 15.6667 26.0002V26.6668C15.6667 27.2135 16.12 27.6668 16.6667 27.6668C17.9467 27.6668 19 28.7202 19 30.0002C19 31.2802 17.9467 32.3335 16.6667 32.3335C16.12 32.3335 15.6667 32.7868 15.6667 33.3335V34.0002C15.6667 39.8802 17.4534 41.6668 23.3334 41.6668H26.3334V38.6668C26.3334 38.1202 26.7867 37.6668 27.3334 37.6668C27.88 37.6668 28.3334 38.1202 28.3334 38.6668V41.6668H36.6667C42.5467 41.6668 44.3334 39.8802 44.3334 34.0002C44.3334 33.4535 43.88 33.0002 43.3334 33.0002C42.0534 33.0002 41 31.9468 41 30.6668C41 29.3868 42.0534 28.3335 43.3334 28.3335ZM28.3334 32.8935C28.3334 33.4402 27.88 33.8935 27.3334 33.8935C26.7867 33.8935 26.3334 33.4402 26.3334 32.8935V27.1068C26.3334 26.5602 26.7867 26.1068 27.3334 26.1068C27.88 26.1068 28.3334 26.5602 28.3334 27.1068V32.8935Z"/>
</symbol><symbol viewBox="0 0 60 60" fill="none" id="svg-3" xmlns="http://www.w3.org/2000/svg">
<circle cx="30" cy="30" r="28" stroke-width="4"/>
<path d="M26.2 23.9868C25.4533 23.9868 24.8666 24.5868 24.8666 25.3201C24.8666 26.0535 25.4666 26.6535 26.2 26.6535C26.9333 26.6535 27.5333 26.0535 27.5333 25.3201C27.5333 24.5868 26.9333 23.9868 26.2 23.9868Z"/>
<path d="M42.6134 20.7198C41.4934 18.1198 39.0267 16.6665 35.5867 16.6665H24.4134C20.1334 16.6665 16.6667 20.1332 16.6667 24.4132V35.5865C16.6667 39.0265 18.12 41.4932 20.72 42.6132C20.9734 42.7198 21.2667 42.6532 21.4534 42.4665L42.4667 21.4532C42.6667 21.2532 42.7334 20.9598 42.6134 20.7198ZM28.04 30.3198C27.52 30.8265 26.84 31.0665 26.16 31.0665C25.48 31.0665 24.8 30.8132 24.28 30.3198C22.92 29.0398 21.4267 26.9998 22 24.5732C22.5067 22.3732 24.4534 21.3865 26.16 21.3865C27.8667 21.3865 29.8134 22.3732 30.32 24.5865C30.88 26.9998 29.3867 29.0398 28.04 30.3198Z"/>
<path d="M39.96 41.3732C40.2534 41.6665 40.2134 42.1465 39.8534 42.3465C38.68 42.9999 37.2534 43.3332 35.5867 43.3332H24.4134C24.0267 43.3332 23.8667 42.8799 24.1334 42.6132L32.1867 34.5599C32.4534 34.2932 32.8667 34.2932 33.1334 34.5599L39.96 41.3732Z"/>
<path d="M43.3333 24.4134V35.5867C43.3333 37.2534 43 38.6934 42.3467 39.8534C42.1467 40.2134 41.6667 40.24 41.3733 39.96L34.5467 33.1334C34.28 32.8667 34.28 32.4534 34.5467 32.1867L42.6 24.1334C42.88 23.8667 43.3333 24.0267 43.3333 24.4134Z"/>
</symbol><symbol viewBox="0 0 60 60" fill="none" id="svg-4" xmlns="http://www.w3.org/2000/svg">
<circle cx="30" cy="30" r="28" stroke-width="4"/>
<path d="M30 16.6665C22.64 16.6665 16.6667 22.6398 16.6667 29.9998C16.6667 37.3598 22.64 43.3332 30 43.3332C37.36 43.3332 43.3334 37.3598 43.3334 29.9998C43.3334 22.6398 37.36 16.6665 30 16.6665ZM30.44 36.6665C30.2 36.7465 29.7867 36.7465 29.5467 36.6665C27.4667 35.9598 22.8 32.9865 22.8 27.9465C22.8 25.7198 24.5867 23.9198 26.8 23.9198C28.1067 23.9198 29.2667 24.5465 30 25.5332C30.72 24.5598 31.8934 23.9198 33.2 23.9198C35.4134 23.9198 37.2 25.7198 37.2 27.9465C37.2 32.9865 32.5334 35.9598 30.44 36.6665Z" fill="#18B025"/>
</symbol><symbol viewBox="0 0 60 60" fill="none" id="svg-5" xmlns="http://www.w3.org/2000/svg">
<circle cx="30" cy="30" r="28" stroke-width="4"/>
<g clip-path="url(#eclip0_242_52)">
<path d="M18.3375 14.1188C18.1437 14.2063 18.0437 14.3063 17.9437 14.5125C17.8187 14.7688 17.8125 14.8813 17.8125 16.2688V17.75H16.3C14.8812 17.75 14.775 17.7563 14.5125 17.8813C14.3062 17.9813 14.2062 18.0813 14.1187 18.275C13.9562 18.6375 13.9687 18.8688 14.1812 19.1938C14.4187 19.5563 19.9687 25.0813 20.2312 25.2125C20.4 25.3 20.7 25.3125 22.2 25.3125H23.9687L26.5937 27.9438C28.0375 29.3938 29.3437 30.6563 29.4937 30.7563C29.6625 30.8688 29.8562 30.9375 29.9875 30.9375C30.4625 30.9375 30.9375 30.4625 30.9375 29.9875C30.9375 29.8563 30.8687 29.6625 30.7562 29.4938C30.6562 29.3438 29.3937 28.0375 27.9437 26.5938L25.3125 23.9688V22.2C25.3125 20.675 25.3 20.4063 25.2062 20.2313C25.0812 19.9813 19.5 14.3313 19.1937 14.1438C18.9187 13.9688 18.675 13.9625 18.3375 14.1188Z"/>
<path d="M28.375 14.1C26.9875 14.2625 25.5 14.65 24.1812 15.1812C23.7625 15.3562 23.3937 15.5187 23.3687 15.5437C23.3375 15.575 23.9562 16.2375 24.7375 17.0125L26.1562 18.4312L26.8312 18.25C27.9937 17.9375 28.7187 17.85 30.0312 17.85C31.5812 17.85 32.8312 18.0625 34.1562 18.5562C37.9187 19.9437 40.8062 23.125 41.7812 26.9375C42.075 28.0937 42.15 28.7062 42.15 30C42.15 31.2937 42.075 31.9062 41.7812 33.0625C40.7062 37.2687 37.2687 40.7062 33.0625 41.7812C31.9062 42.075 31.2937 42.15 30 42.15C28.7062 42.15 28.0937 42.075 26.9375 41.7812C22.7312 40.7062 19.2937 37.2687 18.2187 33.0625C17.925 31.9187 17.85 31.2937 17.85 30.0312C17.85 28.7187 17.9375 27.9937 18.25 26.8312L18.4312 26.1562L17.0125 24.7375C16.2375 23.9562 15.575 23.3375 15.5437 23.3687C15.5187 23.3937 15.3562 23.7625 15.1812 24.1812C14.2375 26.5125 13.85 29.0125 14.0625 31.3437C14.4875 35.95 16.7687 40.0312 20.4687 42.8125C22.8312 44.5875 25.6312 45.6562 28.6562 45.9375C31.4437 46.1937 34.5875 45.5937 37.125 44.3125C38.8312 43.45 40.6187 42.0875 41.8437 40.7125C44.2437 38.0125 45.6062 34.8937 45.9375 31.3437C46.1937 28.5562 45.5937 25.4125 44.3125 22.875C42.775 19.825 40.175 17.225 37.125 15.6875C34.5 14.3625 31.1937 13.7625 28.375 14.1Z"/>
<path d="M29.2188 21.6064C28.8125 21.6564 28.0125 21.8251 27.6125 21.9501L27.1875 22.0751V22.6501V23.2189L28.2438 24.2751L29.3063 25.3376L30.075 25.3501C30.8625 25.3626 31.1875 25.4251 31.8125 25.6876C33.15 26.2564 34.2063 27.5064 34.5688 28.9376C34.6188 29.1314 34.6562 29.5939 34.6562 30.0001C34.6562 30.4064 34.6188 30.8689 34.5688 31.0626C34.1375 32.7751 32.775 34.1376 31.0625 34.5689C30.6188 34.6814 29.3812 34.6814 28.9375 34.5689C27.5062 34.2064 26.2563 33.1501 25.6875 31.8126C25.425 31.1876 25.3625 30.8626 25.35 30.0751L25.3375 29.3064L24.275 28.2439L23.2188 27.1876H22.65H22.075L21.95 27.6064C21.3563 29.5751 21.4688 31.4689 22.2875 33.3751C23.0938 35.2501 24.75 36.9064 26.625 37.7126C27.9875 38.3001 29.375 38.5251 30.7688 38.3876C32.7875 38.1876 34.5188 37.3689 35.9438 35.9439C37.3688 34.5189 38.1875 32.7876 38.3875 30.7689C38.7812 26.8001 36.2 23.0376 32.3188 21.9001C31.4125 21.6314 30.0312 21.5001 29.2188 21.6064Z"/>
</g>
<defs>
<clipPath id="eclip0_242_52">
<rect width="32" height="32" transform="translate(14 14)"/>
</clipPath>
</defs>
</symbol></svg>