<svg width="29" height="29" viewBox="0 0 29 29" fill="none" xmlns="http://www.w3.org/2000/svg">
<rect x="0.474609" width="28" height="29" rx="14" fill="white"/>
<path d="M14.4768 7.36802C16.7213 7.36802 16.9848 7.37838 17.8719 7.41983C18.6924 7.45782 19.1359 7.59945 19.4328 7.72034C19.8263 7.87924 20.1064 8.06577 20.3999 8.36974C20.6934 8.67371 20.8769 8.96386 21.0269 9.37146C21.1403 9.67888 21.2804 10.1383 21.3171 10.988C21.3571 11.9068 21.3671 12.1797 21.3671 14.5044C21.3671 16.8291 21.3571 17.102 21.3171 18.0208C21.2804 18.8705 21.1437 19.3299 21.0269 19.6374C20.8735 20.045 20.6934 20.3351 20.3999 20.6391C20.1064 20.9431 19.8263 21.133 19.4328 21.2885C19.1359 21.4059 18.6924 21.551 17.8719 21.589C16.9848 21.6304 16.7213 21.6408 14.4768 21.6408C12.2323 21.6408 11.9688 21.6304 11.0817 21.589C10.2612 21.551 9.81767 21.4094 9.52084 21.2885C9.1273 21.1296 8.84715 20.9431 8.55366 20.6391C8.26017 20.3351 8.07674 20.045 7.92666 19.6374C7.81327 19.3299 7.6732 18.8705 7.63651 18.0208C7.59649 17.102 7.58648 16.8291 7.58648 14.5044C7.58648 12.1797 7.59649 11.9068 7.63651 10.988C7.6732 10.1383 7.80994 9.67888 7.92666 9.37146C8.08008 8.96386 8.26017 8.67371 8.55366 8.36974C8.84715 8.06577 9.1273 7.87578 9.52084 7.72034C9.81767 7.6029 10.2612 7.45782 11.0817 7.41983C11.9688 7.37492 12.2356 7.36802 14.4768 7.36802ZM14.4768 5.7998C12.1956 5.7998 11.9088 5.81017 11.0116 5.85162C10.1178 5.89307 9.5075 6.0416 8.97389 6.25576C8.42026 6.47683 7.95334 6.77735 7.48643 7.26093C7.01952 7.74452 6.7327 8.23157 6.51592 8.80151C6.30914 9.35419 6.16573 9.98631 6.12571 10.9155C6.08569 11.8412 6.07568 12.1383 6.07568 14.501C6.07568 16.8636 6.08569 17.1607 6.12571 18.0899C6.16573 19.0156 6.30914 19.6477 6.51592 20.2039C6.72936 20.7773 7.01952 21.2608 7.48643 21.7444C7.95334 22.228 8.42359 22.5251 8.97389 22.7496C9.5075 22.9638 10.1178 23.1123 11.015 23.1537C11.9121 23.1952 12.1956 23.2056 14.4801 23.2056C16.7647 23.2056 17.0482 23.1952 17.9453 23.1537C18.8391 23.1123 19.4494 22.9638 19.9864 22.7496C20.54 22.5285 21.0069 22.228 21.4738 21.7444C21.9408 21.2608 22.2276 20.7738 22.4444 20.2039C22.6511 19.6512 22.7945 19.0191 22.8346 18.0899C22.8746 17.1607 22.8846 16.8671 22.8846 14.501C22.8846 12.1348 22.8746 11.8412 22.8346 10.912C22.7945 9.98631 22.6511 9.35419 22.4444 8.79806C22.2309 8.22466 21.9408 7.74107 21.4738 7.25748C21.0069 6.77389 20.5367 6.47683 19.9864 6.25231C19.4528 6.03815 18.8424 5.88961 17.9453 5.84816C17.0448 5.81017 16.758 5.7998 14.4768 5.7998Z" fill="#EF6B01"/>
<path d="M14.4769 10.0352C12.0956 10.0352 10.1613 12.0351 10.1613 14.5049C10.1613 16.9747 12.0923 18.9746 14.4769 18.9746C16.8615 18.9746 18.7925 16.9747 18.7925 14.5049C18.7925 12.0351 16.8615 10.0352 14.4769 10.0352ZM14.4769 17.403C12.9294 17.403 11.6754 16.1042 11.6754 14.5014C11.6754 12.8987 12.9294 11.5999 14.4769 11.5999C16.0244 11.5999 17.2784 12.8987 17.2784 14.5014C17.2784 16.1042 16.0244 17.403 14.4769 17.403Z" fill="#EF6B01"/>
<path d="M18.9625 10.8988C19.5188 10.8988 19.9697 10.4318 19.9697 9.85567C19.9697 9.27954 19.5188 8.8125 18.9625 8.8125C18.4063 8.8125 17.9553 9.27954 17.9553 9.85567C17.9553 10.4318 18.4063 10.8988 18.9625 10.8988Z" fill="#EF6B01"/>
</svg>
