<svg width="9" height="15" viewBox="0 0 10 16" fill="none" xmlns="http://www.w3.org/2000/svg">
<path d="M7.72113 15.2066C7.91487 15.3963 8.16145 15.4998 8.45205 15.4998C9.03327 15.4998 9.5 15.0514 9.5 14.4821C9.5 14.1975 9.37671 13.9388 9.17417 13.7404L3.00978 7.8412L9.17417 1.95924C9.37671 1.76088 9.5 1.49352 9.5 1.21753C9.5 0.648308 9.03327 0.19983 8.45205 0.19983C8.16145 0.19983 7.91487 0.303325 7.72113 0.493065L0.869862 7.04774C0.623287 7.27198 0.508806 7.54797 0.499999 7.84983C0.499999 8.15169 0.623287 8.41043 0.869862 8.64329L7.72113 15.2066Z" fill="white"/>
</svg>
