<svg width="10" height="16" viewBox="0 0 10 16" fill="none" xmlns="http://www.w3.org/2000/svg">
<path d="M2.27887 15.2066C2.08513 15.3963 1.83855 15.4998 1.54795 15.4998C0.966734 15.4998 0.500002 15.0514 0.500002 14.4821C0.500002 14.1975 0.62329 13.9388 0.825835 13.7404L6.99022 7.8412L0.825833 1.95924C0.623289 1.76088 0.500001 1.49352 0.500001 1.21753C0.500001 0.648308 0.966733 0.19983 1.54795 0.19983C1.83855 0.19983 2.08513 0.303325 2.27887 0.493065L9.13014 7.04774C9.37671 7.27198 9.49119 7.54797 9.5 7.84983C9.5 8.15169 9.37671 8.41043 9.13014 8.64329L2.27887 15.2066Z" fill="white"/>
</svg>
