<svg width="45" height="46" viewBox="0 0 45 46" fill="none" xmlns="http://www.w3.org/2000/svg">
<path d="M35.1777 36.0303L35.1776 36.0302L35.1713 36.0368C34.4818 36.7519 34.4727 37.8887 35.1777 38.5936L38.6652 42.0811C39.0076 42.4235 39.4744 42.6026 39.9375 42.6026C40.4039 42.6026 40.8622 42.4218 41.2152 42.094L41.2253 42.0846L41.2349 42.0747C41.9245 41.3596 41.9335 40.2228 41.2285 39.5178L37.741 36.0303L37.7411 36.0302L37.7346 36.0239C37.0195 35.3344 35.8827 35.3253 35.1777 36.0303Z" fill="#EF6B01" stroke="#EF6B01"/>
<path d="M21.5625 4.60254C11.7375 4.60254 3.75 12.59 3.75 22.415C3.75 32.24 11.7375 40.2275 21.5625 40.2275C31.3875 40.2275 39.375 32.24 39.375 22.415C39.375 12.59 31.3875 4.60254 21.5625 4.60254ZM27.525 23.465C26.475 26.8025 22.8188 28.6213 21.5625 28.6213C20.2687 28.6213 16.6875 26.8775 15.6 23.465C14.8875 21.2338 15.6937 18.3275 18.2437 17.5213C19.4062 17.1463 20.6437 17.3713 21.5625 18.065C22.4625 17.3713 23.7188 17.1463 24.9 17.5213C27.4312 18.3463 28.2375 21.2525 27.525 23.465Z" fill="#EF6B01"/>
</svg>
