<svg width="14" height="8" viewBox="0 0 14 8" fill="none" xmlns="http://www.w3.org/2000/svg">
<path d="M13.3058 6.38087C13.4719 6.55039 13.5624 6.76614 13.5624 7.02043C13.5624 7.52899 13.17 7.93738 12.6719 7.93738C12.4229 7.93738 12.1965 7.8295 12.0229 7.65227L6.86113 2.25844L1.71441 7.65227C1.54084 7.8295 1.3069 7.93738 1.06541 7.93738C0.567345 7.93738 0.174927 7.52899 0.174927 7.02043C0.174927 6.76615 0.265485 6.55039 0.431508 6.38087L6.16685 0.386008C6.36306 0.170254 6.60455 0.0700831 6.86868 0.0623776C7.13281 0.0623776 7.3592 0.170254 7.56296 0.386008L13.3058 6.38087Z" fill="#EF6B01"/>
</svg>
