<svg width="18" height="18" viewBox="0 0 18 18" fill="none" xmlns="http://www.w3.org/2000/svg">
<path d="M7.22195 3.90443C7.8587 2.30375 8.17708 1.5034 8.69434 1.39248C8.83035 1.36331 8.97092 1.36331 9.10693 1.39248C9.62419 1.5034 9.94257 2.30375 10.5793 3.90443C10.9414 4.81471 11.1225 5.26985 11.4613 5.57942C11.5563 5.66625 11.6595 5.74358 11.7693 5.81033C12.1609 6.04831 12.6497 6.09245 13.6273 6.18074C15.2822 6.33019 16.1097 6.40491 16.3624 6.88066C16.4147 6.97919 16.4503 7.08587 16.4677 7.19626C16.5514 7.72929 15.9431 8.28735 14.7265 9.40347L14.3886 9.71341C13.8198 10.2352 13.5354 10.4961 13.3709 10.8217C13.2723 11.017 13.2061 11.2274 13.1751 11.4443C13.1234 11.806 13.2067 12.1845 13.3733 12.9415L13.4328 13.212C13.7315 14.5695 13.8808 15.2483 13.6944 15.5819C13.5269 15.8816 13.2185 16.0735 12.8777 16.0899C12.4983 16.1081 11.9638 15.6689 10.8948 14.7905C10.1904 14.2118 9.83828 13.9225 9.44733 13.8094C9.09007 13.7061 8.71121 13.7061 8.35394 13.8094C7.96299 13.9225 7.61083 14.2118 6.9065 14.7905C5.83745 15.6689 5.30293 16.1081 4.92357 16.0899C4.58282 16.0735 4.27435 15.8816 4.10688 15.5819C3.92045 15.2483 4.0698 14.5695 4.3685 13.212L4.42801 12.9415C4.59457 12.1845 4.67785 11.806 4.62617 11.4443C4.59517 11.2274 4.52901 11.017 4.43033 10.8217C4.26583 10.4961 3.98143 10.2352 3.41264 9.71341L3.07478 9.40347C1.85815 8.28735 1.24984 7.72929 1.33361 7.19626C1.35096 7.08587 1.38655 6.97919 1.43888 6.88065C1.69157 6.40491 2.51904 6.33019 4.17398 6.18074C5.15161 6.09245 5.64042 6.04831 6.03199 5.81033C6.14182 5.74358 6.24497 5.66625 6.33999 5.57942C6.67878 5.26985 6.85983 4.81471 7.22195 3.90443Z" fill="#FFCC19" stroke="#FFCC19" stroke-width="2"/>
</svg>
