<svg width="33" height="34" viewBox="0 0 33 34" fill="none" xmlns="http://www.w3.org/2000/svg">
<g opacity="0.7">
<path d="M13.75 5.65625H15.4688V12.1875C15.4688 12.7513 15.9362 13.2188 16.5 13.2188C17.0637 13.2188 17.5312 12.7513 17.5312 12.1875V5.65625H19.25C19.8137 5.65625 20.2812 5.18875 20.2812 4.625C20.2812 4.06125 19.8137 3.59375 19.25 3.59375H13.75C13.1863 3.59375 12.7188 4.06125 12.7188 4.625C12.7188 5.18875 13.1863 5.65625 13.75 5.65625Z" fill="white"/>
<path d="M19.25 28.3438H17.5312V21.8125C17.5312 21.2488 17.0637 20.7812 16.5 20.7812C15.9362 20.7812 15.4688 21.2488 15.4688 21.8125V28.3438H13.75C13.1863 28.3438 12.7188 28.8112 12.7188 29.375C12.7188 29.9388 13.1863 30.4062 13.75 30.4062H19.25C19.8137 30.4062 20.2812 29.9388 20.2812 29.375C20.2812 28.8112 19.8137 28.3438 19.25 28.3438Z" fill="white"/>
<path d="M3.89126 14.085C4.05626 14.1813 4.23501 14.2225 4.40001 14.2225C4.75751 14.2225 5.10126 14.0438 5.29376 13.7L6.16001 12.215L11.825 15.4875C11.9763 15.5838 12.155 15.625 12.3338 15.625C12.6913 15.625 13.035 15.4463 13.2275 15.1025C13.5163 14.6213 13.3375 13.9888 12.8563 13.7L7.19126 10.4275L8.04376 8.94253C8.33251 8.44753 8.15376 7.81503 7.67251 7.54003C7.17751 7.25128 6.54501 7.41628 6.27001 7.91128L3.52001 12.6688C3.23126 13.1775 3.39626 13.7963 3.89126 14.085Z" fill="white"/>
<path d="M29.1087 19.9151C28.6137 19.6264 27.9812 19.7914 27.7062 20.2864L26.84 21.7714L21.175 18.5126C20.68 18.2239 20.0475 18.4026 19.7725 18.8839C19.4837 19.3789 19.6625 20.0114 20.1437 20.2864L25.795 23.5589L24.9425 25.0439C24.6537 25.5389 24.8325 26.1714 25.3137 26.4464C25.4787 26.5426 25.6575 26.5838 25.8225 26.5838C26.18 26.5838 26.5237 26.4051 26.7162 26.0614L29.4662 21.3039C29.7687 20.8226 29.6037 20.2039 29.1087 19.9151Z" fill="white"/>
<path d="M25.8088 10.4275L20.1438 13.7C19.6488 13.9887 19.4838 14.6212 19.7725 15.1025C19.965 15.4325 20.3088 15.625 20.6663 15.625C20.845 15.625 21.0238 15.5837 21.175 15.4875L26.8263 12.215L27.6925 13.7C27.885 14.03 28.2288 14.2225 28.5863 14.2225C28.765 14.2225 28.9438 14.1812 29.095 14.085C29.59 13.7962 29.755 13.1637 29.4663 12.6825L26.7163 7.92495C26.4275 7.42995 25.795 7.26495 25.3138 7.5537C24.8188 7.84245 24.6538 8.47495 24.9425 8.9562L25.8088 10.4275Z" fill="white"/>
<path d="M7.19126 23.5726L12.8425 20.3001C13.3375 20.0114 13.5025 19.3789 13.2138 18.8976C12.925 18.4026 12.2925 18.2376 11.8113 18.5264L6.16001 21.7989L5.29376 20.3139C5.00501 19.8189 4.37251 19.6539 3.89126 19.9426C3.39626 20.2314 3.23126 20.8639 3.52001 21.3451L6.27001 26.1026C6.46251 26.4326 6.80626 26.6251 7.16376 26.6251C7.34251 26.6251 7.52126 26.5839 7.67251 26.4876C8.16751 26.1989 8.33251 25.5664 8.04376 25.0851L7.19126 23.5726Z" fill="white"/>
<path d="M21.3125 17C21.3125 17.88 21.0787 18.6912 20.6662 19.4062C19.8275 20.85 18.2737 21.8125 16.5 21.8125C14.7263 21.8125 13.1725 20.85 12.3338 19.4062C11.9213 18.6912 11.6875 17.88 11.6875 17C11.6875 16.12 11.9213 15.3087 12.3338 14.5938C13.1725 13.15 14.7263 12.1875 16.5 12.1875C18.2737 12.1875 19.8275 13.15 20.6662 14.5938C21.0787 15.3087 21.3125 16.12 21.3125 17Z" fill="white"/>
</g>
</svg>
