<svg width="30" height="29" viewBox="0 0 30 29" fill="none" xmlns="http://www.w3.org/2000/svg">
<g clip-path="url(#clip0_74_706)">
<ellipse cx="15" cy="13.0722" rx="11.9143" ry="11.6496" fill="white"/>
<path d="M27.9006 6.40326C27.3911 4.64497 26.3823 3.25606 24.9047 2.27349C23.04 1.02988 20.895 0.591538 19.0429 0.323116C16.4801 -0.0462731 14.1593 -0.0979873 11.9456 0.163048C9.87189 0.409307 8.31027 0.800859 6.88621 1.43375C4.09414 2.67489 2.41788 4.6819 1.90583 7.39814C1.65617 8.71809 1.48804 9.90999 1.39123 11.0477C1.16705 13.6778 1.37085 16.0049 2.01283 18.1621C2.63951 20.2652 3.73239 21.7674 5.35516 22.7549C5.76785 23.0061 6.29774 23.1883 6.80978 23.3631C7.1002 23.4616 7.38298 23.5577 7.6148 23.6636C7.82879 23.7596 7.82879 23.7768 7.82624 23.9492C7.80841 25.444 7.82624 28.3745 7.82624 28.3745L7.83134 29H8.993L9.18152 28.8227C9.30634 28.7094 12.185 26.0203 13.2117 24.9367L13.3518 24.7865C13.5276 24.5895 13.5276 24.5895 13.7084 24.587C15.0943 24.5599 16.5107 24.5082 17.9169 24.4344C19.6212 24.3457 21.5955 24.1856 23.4552 23.437C25.1569 22.7499 26.4001 21.659 27.1465 20.1962C27.9261 18.6694 28.3872 17.017 28.5604 15.143C28.8661 11.848 28.6496 8.98898 27.9006 6.40326ZM21.7713 19.2161C21.3433 19.8884 20.7064 20.3563 19.9549 20.6592C19.4047 20.8808 18.8442 20.834 18.3016 20.6124C13.7594 18.7532 10.1954 15.8251 7.84153 11.6141C7.35495 10.7473 7.01868 9.80163 6.63146 8.88555C6.55249 8.69839 6.55758 8.47676 6.52192 8.2699C6.55503 6.78988 7.72944 5.95506 8.91657 5.70388C9.37003 5.60538 9.77254 5.76052 10.1088 6.07327C11.0412 6.93025 11.7774 7.9276 12.3328 9.04562C12.5748 9.53567 12.4653 9.96909 12.0526 10.3336C11.9659 10.4099 11.8768 10.4788 11.7825 10.5478C10.8399 11.2324 10.7024 11.752 11.2042 12.7838C12.0602 14.5397 13.4817 15.7192 15.3185 16.4506C15.8025 16.6427 16.2585 16.5467 16.6279 16.1674C16.6788 16.1182 16.7349 16.0689 16.7705 16.0098C17.494 14.8426 18.5462 14.9583 19.5168 15.6232C20.1536 16.0615 20.7727 16.5245 21.4019 16.9702C22.3623 17.6524 22.3547 18.2926 21.7713 19.2161ZM15.7464 7.5656C15.5325 7.5656 15.3185 7.58284 15.107 7.61731C14.7504 7.67395 14.4166 7.44247 14.3555 7.09771C14.2969 6.75541 14.5364 6.43034 14.893 6.3737C15.1733 6.32692 15.4611 6.30475 15.7464 6.30475C18.5716 6.30475 20.8695 8.52601 20.8695 11.257C20.8695 11.5353 20.8466 11.8136 20.7982 12.082C20.7447 12.3898 20.4695 12.609 20.1562 12.609C20.1205 12.609 20.0849 12.6065 20.0466 12.5991C19.6925 12.5425 19.4531 12.2174 19.5117 11.8751C19.5473 11.6732 19.5652 11.4663 19.5652 11.257C19.5652 9.22292 17.8507 7.5656 15.7464 7.5656ZM18.913 11.3481C18.913 11.6954 18.62 11.9786 18.2608 11.9786C17.9016 11.9786 17.6087 11.6954 17.6087 11.3481C17.6087 10.3065 16.7298 9.45687 15.6522 9.45687C15.293 9.45687 15 9.17367 15 8.82645C15 8.47922 15.293 8.19602 15.6522 8.19602C17.4507 8.19602 18.913 9.60955 18.913 11.3481ZM22.6375 12.7494C22.5687 13.0424 22.2986 13.2394 22.0006 13.2394C21.9522 13.2394 21.9038 13.2345 21.8554 13.2246C21.5038 13.1458 21.2847 12.8085 21.3637 12.4686C21.458 12.0672 21.5064 11.651 21.5064 11.2324C21.5064 8.16893 18.9257 5.67433 15.7566 5.67433C15.3236 5.67433 14.893 5.72112 14.4778 5.81223C14.1262 5.89104 13.7772 5.67679 13.6982 5.33695C13.6167 4.99712 13.8384 4.65974 14.1899 4.5834C14.6994 4.47012 15.2268 4.41348 15.7566 4.41348C19.6467 4.41348 22.8107 7.47202 22.8107 11.2324C22.8107 11.7446 22.7521 12.2544 22.6375 12.7494Z" fill="#EF6B01"/>
</g>
<defs>
<clipPath id="clip0_74_706">
<rect width="30" height="29" fill="white"/>
</clipPath>
</defs>
</svg>
