<svg width="29" height="29" viewBox="0 0 29 29" fill="none" xmlns="http://www.w3.org/2000/svg">
<ellipse cx="15.7515" cy="14.5385" rx="11.2367" ry="11.3659" fill="white"/>
<path d="M14.2373 28.7373C22.1022 28.7373 28.4746 22.3649 28.4746 14.5C28.4746 6.63508 22.1022 0.262711 14.2373 0.262711C6.37237 0.262711 0 6.63508 0 14.5C0 22.3649 6.37237 28.7373 14.2373 28.7373ZM6.51475 14.1915L20.2419 8.89881C20.879 8.66864 21.4354 9.05424 21.229 10.0176L21.2302 10.0164L18.8929 21.0278C18.7197 21.8085 18.2558 21.9983 17.6068 21.6305L14.0475 19.0073L12.3307 20.6612C12.1408 20.851 11.9807 21.0112 11.6129 21.0112L11.8656 17.389L18.4622 11.4295C18.7493 11.1768 18.3981 11.0344 18.0197 11.2859L9.86763 16.4185L6.35339 15.3222C5.59051 15.0802 5.5739 14.5593 6.51475 14.1915Z" fill="#EF6B01"/>
</svg>
