<svg width="29" height="29" viewBox="0 0 29 29" fill="none" xmlns="http://www.w3.org/2000/svg">
<rect x="0.474609" width="28" height="29" rx="14" fill="#EF6B01"/>
<path d="M14.4768 7.36821C16.7213 7.36821 16.9848 7.37858 17.8719 7.42003C18.6924 7.45802 19.1359 7.59965 19.4328 7.72054C19.8263 7.87944 20.1064 8.06596 20.3999 8.36993C20.6934 8.6739 20.8769 8.96406 21.0269 9.37165C21.1403 9.67908 21.2804 10.1385 21.3171 10.9882C21.3571 11.907 21.3671 12.1799 21.3671 14.5046C21.3671 16.8293 21.3571 17.1022 21.3171 18.021C21.2804 18.8707 21.1437 19.3301 21.0269 19.6376C20.8735 20.0452 20.6934 20.3353 20.3999 20.6393C20.1064 20.9433 19.8263 21.1332 19.4328 21.2887C19.1359 21.4061 18.6924 21.5512 17.8719 21.5892C16.9848 21.6306 16.7213 21.641 14.4768 21.641C12.2323 21.641 11.9688 21.6306 11.0817 21.5892C10.2612 21.5512 9.81767 21.4096 9.52084 21.2887C9.1273 21.1298 8.84715 20.9433 8.55366 20.6393C8.26017 20.3353 8.07674 20.0452 7.92666 19.6376C7.81327 19.3301 7.6732 18.8707 7.63651 18.021C7.59649 17.1022 7.58648 16.8293 7.58648 14.5046C7.58648 12.1799 7.59649 11.907 7.63651 10.9882C7.6732 10.1385 7.80994 9.67908 7.92666 9.37165C8.08008 8.96406 8.26017 8.6739 8.55366 8.36993C8.84715 8.06596 9.1273 7.87598 9.52084 7.72054C9.81767 7.6031 10.2612 7.45802 11.0817 7.42003C11.9688 7.37512 12.2356 7.36821 14.4768 7.36821ZM14.4768 5.8C12.1956 5.8 11.9088 5.81037 11.0116 5.85182C10.1178 5.89327 9.5075 6.0418 8.97389 6.25596C8.42026 6.47703 7.95334 6.77754 7.48643 7.26113C7.01952 7.74472 6.7327 8.23177 6.51592 8.80171C6.30914 9.35438 6.16573 9.9865 6.12571 10.9157C6.08569 11.8414 6.07568 12.1385 6.07568 14.5012C6.07568 16.8638 6.08569 17.1609 6.12571 18.0901C6.16573 19.0158 6.30914 19.6479 6.51592 20.2041C6.72936 20.7775 7.01952 21.261 7.48643 21.7446C7.95334 22.2282 8.42359 22.5253 8.97389 22.7498C9.5075 22.964 10.1178 23.1125 11.015 23.1539C11.9121 23.1954 12.1956 23.2058 14.4801 23.2058C16.7647 23.2058 17.0482 23.1954 17.9453 23.1539C18.8391 23.1125 19.4494 22.964 19.9864 22.7498C20.54 22.5287 21.0069 22.2282 21.4738 21.7446C21.9408 21.261 22.2276 20.774 22.4444 20.2041C22.6511 19.6514 22.7945 19.0193 22.8346 18.0901C22.8746 17.1609 22.8846 16.8673 22.8846 14.5012C22.8846 12.135 22.8746 11.8414 22.8346 10.9122C22.7945 9.9865 22.6511 9.35438 22.4444 8.79826C22.2309 8.22486 21.9408 7.74127 21.4738 7.25768C21.0069 6.77409 20.5367 6.47703 19.9864 6.2525C19.4528 6.03834 18.8424 5.88981 17.9453 5.84836C17.0448 5.81037 16.758 5.8 14.4768 5.8Z" fill="white"/>
<path d="M14.4769 10.0349C12.0956 10.0349 10.1613 12.0348 10.1613 14.5046C10.1613 16.9744 12.0923 18.9743 14.4769 18.9743C16.8615 18.9743 18.7925 16.9744 18.7925 14.5046C18.7925 12.0348 16.8615 10.0349 14.4769 10.0349ZM14.4769 17.4027C12.9294 17.4027 11.6754 16.1039 11.6754 14.5011C11.6754 12.8984 12.9294 11.5996 14.4769 11.5996C16.0244 11.5996 17.2784 12.8984 17.2784 14.5011C17.2784 16.1039 16.0244 17.4027 14.4769 17.4027Z" fill="white"/>
<path d="M18.9625 10.8984C19.5188 10.8984 19.9697 10.4314 19.9697 9.85523C19.9697 9.2791 19.5188 8.81206 18.9625 8.81206C18.4063 8.81206 17.9553 9.2791 17.9553 9.85523C17.9553 10.4314 18.4063 10.8984 18.9625 10.8984Z" fill="white"/>
</svg>
