<svg width="60" height="60" viewBox="0 0 60 60" fill="none" xmlns="http://www.w3.org/2000/svg">
<circle cx="30" cy="30" r="28" stroke-width="4"/>
<path d="M36.3333 18.7465V16.6665C36.3333 16.1198 35.88 15.6665 35.3333 15.6665C34.7866 15.6665 34.3333 16.1198 34.3333 16.6665V18.6665H25.6666V16.6665C25.6666 16.1198 25.2133 15.6665 24.6666 15.6665C24.12 15.6665 23.6666 16.1198 23.6666 16.6665V18.7465C20.0666 19.0798 18.32 21.2265 18.0533 24.4132C18.0266 24.7998 18.3466 25.1198 18.72 25.1198H41.28C41.6666 25.1198 41.9866 24.7865 41.9466 24.4132C41.68 21.2265 39.9333 19.0798 36.3333 18.7465Z" />
<path d="M40.6667 27.1201H19.3333C18.6 27.1201 18 27.7201 18 28.4535V36.6668C18 40.6668 20 43.3335 24.6667 43.3335H35.3333C40 43.3335 42 40.6668 42 36.6668V28.4535C42 27.7201 41.4 27.1201 40.6667 27.1201ZM33.7867 33.9868L33.12 34.6668H33.1067L29.0667 38.7068C28.8933 38.8801 28.5333 39.0668 28.28 39.0935L26.48 39.3601C25.8267 39.4535 25.3733 38.9868 25.4667 38.3468L25.72 36.5335C25.76 36.2801 25.9333 35.9334 26.1067 35.7468L30.16 31.7068L30.8267 31.0268C31.2667 30.5868 31.76 30.2668 32.2933 30.2668C32.7467 30.2668 33.24 30.4801 33.7867 31.0268C34.9867 32.2268 34.6 33.1735 33.7867 33.9868Z" />
</svg>
