<svg width="60" height="60" viewBox="0 0 60 60" fill="none" xmlns="http://www.w3.org/2000/svg">
<circle cx="30" cy="30" r="28" stroke-width="4"/>
<path d="M43.3334 28.3335C43.88 28.3335 44.3334 27.8802 44.3334 27.3335V26.0002C44.3334 20.1202 42.5467 18.3335 36.6667 18.3335H28.3334V21.3335C28.3334 21.8802 27.88 22.3335 27.3334 22.3335C26.7867 22.3335 26.3334 21.8802 26.3334 21.3335V18.3335H23.3334C17.4534 18.3335 15.6667 20.1202 15.6667 26.0002V26.6668C15.6667 27.2135 16.12 27.6668 16.6667 27.6668C17.9467 27.6668 19 28.7202 19 30.0002C19 31.2802 17.9467 32.3335 16.6667 32.3335C16.12 32.3335 15.6667 32.7868 15.6667 33.3335V34.0002C15.6667 39.8802 17.4534 41.6668 23.3334 41.6668H26.3334V38.6668C26.3334 38.1202 26.7867 37.6668 27.3334 37.6668C27.88 37.6668 28.3334 38.1202 28.3334 38.6668V41.6668H36.6667C42.5467 41.6668 44.3334 39.8802 44.3334 34.0002C44.3334 33.4535 43.88 33.0002 43.3334 33.0002C42.0534 33.0002 41 31.9468 41 30.6668C41 29.3868 42.0534 28.3335 43.3334 28.3335ZM28.3334 32.8935C28.3334 33.4402 27.88 33.8935 27.3334 33.8935C26.7867 33.8935 26.3334 33.4402 26.3334 32.8935V27.1068C26.3334 26.5602 26.7867 26.1068 27.3334 26.1068C27.88 26.1068 28.3334 26.5602 28.3334 27.1068V32.8935Z"/>
</svg>
