<svg width="60" height="60" viewBox="0 0 60 60" fill="none" xmlns="http://www.w3.org/2000/svg">
<circle cx="30" cy="30" r="28" stroke-width="4"/>
<path d="M26.2 23.9868C25.4533 23.9868 24.8666 24.5868 24.8666 25.3201C24.8666 26.0535 25.4666 26.6535 26.2 26.6535C26.9333 26.6535 27.5333 26.0535 27.5333 25.3201C27.5333 24.5868 26.9333 23.9868 26.2 23.9868Z" />
<path d="M42.6134 20.7198C41.4934 18.1198 39.0267 16.6665 35.5867 16.6665H24.4134C20.1334 16.6665 16.6667 20.1332 16.6667 24.4132V35.5865C16.6667 39.0265 18.12 41.4932 20.72 42.6132C20.9734 42.7198 21.2667 42.6532 21.4534 42.4665L42.4667 21.4532C42.6667 21.2532 42.7334 20.9598 42.6134 20.7198ZM28.04 30.3198C27.52 30.8265 26.84 31.0665 26.16 31.0665C25.48 31.0665 24.8 30.8132 24.28 30.3198C22.92 29.0398 21.4267 26.9998 22 24.5732C22.5067 22.3732 24.4534 21.3865 26.16 21.3865C27.8667 21.3865 29.8134 22.3732 30.32 24.5865C30.88 26.9998 29.3867 29.0398 28.04 30.3198Z" />
<path d="M39.96 41.3732C40.2534 41.6665 40.2134 42.1465 39.8534 42.3465C38.68 42.9999 37.2534 43.3332 35.5867 43.3332H24.4134C24.0267 43.3332 23.8667 42.8799 24.1334 42.6132L32.1867 34.5599C32.4534 34.2932 32.8667 34.2932 33.1334 34.5599L39.96 41.3732Z" />
<path d="M43.3333 24.4134V35.5867C43.3333 37.2534 43 38.6934 42.3467 39.8534C42.1467 40.2134 41.6667 40.24 41.3733 39.96L34.5467 33.1334C34.28 32.8667 34.28 32.4534 34.5467 32.1867L42.6 24.1334C42.88 23.8667 43.3333 24.0267 43.3333 24.4134Z" />
</svg>
