<svg width="60" height="60" viewBox="0 0 60 60" fill="none" xmlns="http://www.w3.org/2000/svg">
<circle cx="30" cy="30" r="28" stroke-width="4"/>
<path d="M30 16.6665C22.64 16.6665 16.6667 22.6398 16.6667 29.9998C16.6667 37.3598 22.64 43.3332 30 43.3332C37.36 43.3332 43.3334 37.3598 43.3334 29.9998C43.3334 22.6398 37.36 16.6665 30 16.6665ZM30.44 36.6665C30.2 36.7465 29.7867 36.7465 29.5467 36.6665C27.4667 35.9598 22.8 32.9865 22.8 27.9465C22.8 25.7198 24.5867 23.9198 26.8 23.9198C28.1067 23.9198 29.2667 24.5465 30 25.5332C30.72 24.5598 31.8934 23.9198 33.2 23.9198C35.4134 23.9198 37.2 25.7198 37.2 27.9465C37.2 32.9865 32.5334 35.9598 30.44 36.6665Z" />
</svg>
