<svg width="60" height="60" viewBox="0 0 60 60" fill="none" xmlns="http://www.w3.org/2000/svg">
<circle cx="30" cy="30" r="28" stroke-width="4"/>
<g clip-path="url(#clip0_242_52)">
<path d="M18.3375 14.1188C18.1437 14.2063 18.0437 14.3063 17.9437 14.5125C17.8187 14.7688 17.8125 14.8813 17.8125 16.2688V17.75H16.3C14.8812 17.75 14.775 17.7563 14.5125 17.8813C14.3062 17.9813 14.2062 18.0813 14.1187 18.275C13.9562 18.6375 13.9687 18.8688 14.1812 19.1938C14.4187 19.5563 19.9687 25.0813 20.2312 25.2125C20.4 25.3 20.7 25.3125 22.2 25.3125H23.9687L26.5937 27.9438C28.0375 29.3938 29.3437 30.6563 29.4937 30.7563C29.6625 30.8688 29.8562 30.9375 29.9875 30.9375C30.4625 30.9375 30.9375 30.4625 30.9375 29.9875C30.9375 29.8563 30.8687 29.6625 30.7562 29.4938C30.6562 29.3438 29.3937 28.0375 27.9437 26.5938L25.3125 23.9688V22.2C25.3125 20.675 25.3 20.4063 25.2062 20.2313C25.0812 19.9813 19.5 14.3313 19.1937 14.1438C18.9187 13.9688 18.675 13.9625 18.3375 14.1188Z" />
<path d="M28.375 14.1C26.9875 14.2625 25.5 14.65 24.1812 15.1812C23.7625 15.3562 23.3937 15.5187 23.3687 15.5437C23.3375 15.575 23.9562 16.2375 24.7375 17.0125L26.1562 18.4312L26.8312 18.25C27.9937 17.9375 28.7187 17.85 30.0312 17.85C31.5812 17.85 32.8312 18.0625 34.1562 18.5562C37.9187 19.9437 40.8062 23.125 41.7812 26.9375C42.075 28.0937 42.15 28.7062 42.15 30C42.15 31.2937 42.075 31.9062 41.7812 33.0625C40.7062 37.2687 37.2687 40.7062 33.0625 41.7812C31.9062 42.075 31.2937 42.15 30 42.15C28.7062 42.15 28.0937 42.075 26.9375 41.7812C22.7312 40.7062 19.2937 37.2687 18.2187 33.0625C17.925 31.9187 17.85 31.2937 17.85 30.0312C17.85 28.7187 17.9375 27.9937 18.25 26.8312L18.4312 26.1562L17.0125 24.7375C16.2375 23.9562 15.575 23.3375 15.5437 23.3687C15.5187 23.3937 15.3562 23.7625 15.1812 24.1812C14.2375 26.5125 13.85 29.0125 14.0625 31.3437C14.4875 35.95 16.7687 40.0312 20.4687 42.8125C22.8312 44.5875 25.6312 45.6562 28.6562 45.9375C31.4437 46.1937 34.5875 45.5937 37.125 44.3125C38.8312 43.45 40.6187 42.0875 41.8437 40.7125C44.2437 38.0125 45.6062 34.8937 45.9375 31.3437C46.1937 28.5562 45.5937 25.4125 44.3125 22.875C42.775 19.825 40.175 17.225 37.125 15.6875C34.5 14.3625 31.1937 13.7625 28.375 14.1Z" />
<path d="M29.2188 21.6064C28.8125 21.6564 28.0125 21.8251 27.6125 21.9501L27.1875 22.0751V22.6501V23.2189L28.2438 24.2751L29.3063 25.3376L30.075 25.3501C30.8625 25.3626 31.1875 25.4251 31.8125 25.6876C33.15 26.2564 34.2063 27.5064 34.5688 28.9376C34.6188 29.1314 34.6562 29.5939 34.6562 30.0001C34.6562 30.4064 34.6188 30.8689 34.5688 31.0626C34.1375 32.7751 32.775 34.1376 31.0625 34.5689C30.6188 34.6814 29.3812 34.6814 28.9375 34.5689C27.5062 34.2064 26.2563 33.1501 25.6875 31.8126C25.425 31.1876 25.3625 30.8626 25.35 30.0751L25.3375 29.3064L24.275 28.2439L23.2188 27.1876H22.65H22.075L21.95 27.6064C21.3563 29.5751 21.4688 31.4689 22.2875 33.3751C23.0938 35.2501 24.75 36.9064 26.625 37.7126C27.9875 38.3001 29.375 38.5251 30.7688 38.3876C32.7875 38.1876 34.5188 37.3689 35.9438 35.9439C37.3688 34.5189 38.1875 32.7876 38.3875 30.7689C38.7812 26.8001 36.2 23.0376 32.3188 21.9001C31.4125 21.6314 30.0312 21.5001 29.2188 21.6064Z" />
</g>
<defs>
<clipPath id="clip0_242_52">
<rect width="32" height="32" transform="translate(14 14)"/>
</clipPath>
</defs>
</svg>
